#!OML:ASF E:\acrobat2\Project_11_07_03\Capture day 1\Session 1\Acrobat.ASF
:FULLY-SPECIFIED
:DEGREES
827
root 9.99208 7.00527 -3.5068 -34.7355 -12.1761 12.0844
lowerback 33.7925 2.17611 -1.53899
upperback 11.2783 1.68085 -5.23185
thorax -4.74641 0.87815 -5.23238
lowerneck -10.1785 1.74689 -0.214805
upperneck -4.27062 2.32782 -0.810112
head 0.361304 1.15205 -0.137777
rclavicle -2.37051e-014 8.89561e-014
rhumerus 73.0985 11.7858 -10.9185
rradius 56.0911
rwrist 12.7441
rhand -28.9268 -28.6595
rfingers 7.12502
rthumb -2.28101 -58.627
lclavicle -2.37051e-014 8.89561e-014
lhumerus 80.4546 10.9732 5.22361
lradius 79.0948
lwrist -11.8229
lhand -41.8194 -426.645
lfingers 7.12502
lthumb -14.7212 -397.187
rfemur -66.8442 5.35558 18.0861
rtibia 23.6154
rfoot -198.445 -0.845709
rtoes 10.1569
lfemur -95.9249 19.946 -26.1058
ltibia 78.7093
lfoot -15.2657 4.165
ltoes 38.4624
828
root 9.99638 7.13067 -3.58085 -34.5266 -12.541 12.1536
lowerback 33.7961 2.34501 -1.85127
upperback 10.9894 1.75649 -5.46962
thorax -5.05633 0.907841 -5.35099
lowerneck -10.213 1.7931 -0.273826
upperneck -3.98475 2.39925 -0.425329
head 0.451513 1.19259 -0.00575399
rclavicle -1.97294e-014 1.47101e-014
rhumerus 71.4834 10.5808 -11.9131
rradius 52.6317
rwrist 13.2746
rhand -28.0517 -28.889
rfingers 7.12502
rthumb -1.43586 -58.8639
lclavicle -1.97294e-014 1.47101e-014
lhumerus 79.9086 12.1807 5.74485
lradius 76.2436
lwrist -13.2506
lhand -40.8304 -424.578
lfingers 7.12502
lthumb -13.7682 -395.054
rfemur -66.6887 5.58571 18.6535
rtibia 24.3374
rfoot -199.062 -0.0883058
rtoes 12.5918
lfemur -95.3971 20.2964 -25.9936
ltibia 83.019
lfoot -36.8086 21.079
ltoes 39.3418
829
root 10.0006 7.25993 -3.65574 -34.1186 -13.2523 11.759
lowerback 33.6154 2.47386 -1.71893
upperback 10.7492 1.95082 -5.53657
thorax -5.23331 1.00032 -5.55988
lowerneck -10.5493 1.78289 -0.427621
upperneck -3.39546 2.40535 0.196495
head 0.685434 1.20545 0.219168
rclavicle -1.39646e-014 9.93923e-015
rhumerus 69.8761 9.22352 -13.1502
rradius 49.028
rwrist 13.9862
rhand -26.5112 -27.7871
rfingers 7.12502
rthumb 0.0519666 -57.7668
lclavicle -1.39646e-014 9.93923e-015
lhumerus 79.3933 13.3727 6.34345
lradius 73.5978
lwrist -13.859
lhand -39.9572 -421.403
lfingers 7.12502
lthumb -12.9265 -391.824
rfemur -66.4827 5.97671 19.9604
rtibia 25.7311
rfoot -199.195 1.99514
rtoes 7.91577
lfemur -94.9822 20.8015 -25.2873
ltibia 86.8414
lfoot -62.4778 36.7172
ltoes 38.2483
830
root 10.0062 7.39534 -3.72679 -33.798 -13.6219 11.6546
lowerback 33.3949 2.65703 -1.94356
upperback 10.5715 2.09629 -5.71017
thorax -5.33346 1.06711 -5.67169
lowerneck -10.3821 1.57189 -0.39194
upperneck -3.52213 2.12008 0.620072
head 0.614455 1.06914 0.330867
rclavicle 2.21148e-014 6.16232e-014
rhumerus 68.2231 7.73824 -14.8067
rradius 45.3915
rwrist 14.7294
rhand -26.86 -28.525
rfingers 7.12502
rthumb -0.284909 -58.5045
lclavicle 2.21148e-014 6.16232e-014
lhumerus 78.9638 14.6021 6.79699
lradius 71.052
lwrist -13.5507
lhand -39.4131 -417.493
lfingers 7.12502
lthumb -12.402 -387.881
rfemur -66.201 6.15768 20.6331
rtibia 26.9381
rfoot -199.585 3.15502
rtoes 7.25391
lfemur -94.3174 21.0192 -24.9096
ltibia 88.1691
lfoot -96.6376 47.1831
ltoes 34.0408
831
root 10.0127 7.53841 -3.79245 -33.58 -13.7578 11.6887
lowerback 33.3918 2.88447 -2.43066
upperback 10.2615 2.19978 -5.82888
thorax -5.66558 1.10663 -5.58272
lowerneck -11.2114 1.64816 -1.37523
upperneck -1.60573 2.3137 1.96262
head 1.35181 1.20411 0.955677
rclavicle -2.74323e-014 2.82274e-014
rhumerus 66.377 6.25358 -16.377
rradius 42.0204
rwrist 15.2457
rhand -26.618 -30.025
rfingers 7.12502
rthumb -0.051134 -60.0047
lclavicle -2.74323e-014 2.82274e-014
lhumerus 78.5875 15.5622 7.26723
lradius 68.3522
lwrist -12.6988
lhand -38.1318 -413.133
lfingers 7.12502
lthumb -11.1664 -383.45
rfemur -65.7429 6.17399 20.8944
rtibia 28.1913
rfoot -200.092 3.87399
rtoes 7.52236
lfemur -93.1794 20.9803 -24.5915
ltibia 86.5194
lfoot -135.477 45.2896
ltoes 29.0281
832
root 10.0161 7.68662 -3.86051 -33.1156 -14.1478 11.1646
lowerback 33.3788 3.01773 -2.42689
upperback 9.84987 2.35895 -5.72398
thorax -6.09811 1.17448 -5.54166
lowerneck -10.7854 1.86325 -0.867282
upperneck -1.10393 2.53384 1.76404
head 1.44346 1.30747 0.814882
rclavicle 3.2551e-014 -8.74653e-015
rhumerus 64.3815 4.58799 -17.8555
rradius 38.9064
rwrist 15.4723
rhand -25.2248 -31.0706
rfingers 7.12502
rthumb 1.2945 -61.0464
lclavicle 3.2551e-014 -8.74653e-015
lhumerus 78.238 16.3534 7.85929
lradius 65.8107
lwrist -11.065
lhand -36.0285 -408.523
lfingers 7.12502
lthumb -9.13732 -378.741
rfemur -65.2379 6.23114 21.916
rtibia 29.534
rfoot -200.585 5.0023
rtoes 5.92198
lfemur -91.9276 20.8854 -23.6147
ltibia 82.6146
lfoot -164.123 30.6211
ltoes 27.9157
833
root 10.0186 7.8358 -3.9355 -32.4267 -14.322 10.5115
lowerback 33.2039 2.97295 -2.29253
upperback 9.49732 2.34089 -5.72213
thorax -6.41609 1.16082 -5.61171
lowerneck -10.069 1.75725 -0.720217
upperneck -1.70541 2.3857 1.4851
head 1.1293 1.22287 0.67801
rclavicle -1.93815e-014 -3.4191e-014
rhumerus 62.6612 2.50806 -20.1385
rradius 35.6637
rwrist 15.6615
rhand -24.1653 -32.2994
rfingers 7.12502
rthumb 2.31772 -62.2666
lclavicle -1.93815e-014 -3.4191e-014
lhumerus 77.8297 17.2797 8.26266
lradius 63.4755
lwrist -8.86768
lhand -34.1065 -404.325
lfingers 7.12502
lthumb -7.28242 -374.47
rfemur -64.9892 6.03098 22.9499
rtibia 30.7627
rfoot -200.982 6.22448
rtoes 3.75224
lfemur -90.7471 20.4224 -22.7179
ltibia 78.2544
lfoot -183.584 11.2438
ltoes 30.1179
834
root 10.0241 7.98357 -4.00978 -31.8056 -14.1338 10.1573
lowerback 32.965 2.87272 -2.36481
upperback 9.2274 2.17158 -5.95355
thorax -6.63124 1.07823 -5.76242
lowerneck -10.9434 1.63622 -0.912708
upperneck 0.310358 2.19695 2.50321
head 1.93702 1.16549 1.06405
rclavicle -1.48095e-014 -2.38542e-014
rhumerus 61.2709 -0.126575 -23.5835
rradius 32.2148
rwrist 16.2668
rhand -23.1024 -33.4872
rfingers 7.12502
rthumb 3.34425 -63.4407
lclavicle -1.48095e-014 -2.38542e-014
lhumerus 77.5557 18.203 8.50461
lradius 60.9806
lwrist -7.02037
lhand -33.53 -400.824
lfingers 7.12502
lthumb -6.72586 -370.951
rfemur -64.9005 5.69904 23.2675
rtibia 32.0074
rfoot -200.992 6.98976
rtoes 2.50576
lfemur -89.4275 19.6496 -22.2591
ltibia 74.3629
lfoot -184.43 10.2034
ltoes 33.0287
835
root 10.0282 8.13251 -4.07401 -31.328 -13.9596 9.96813
lowerback 32.6869 2.9084 -2.66416
upperback 8.97709 2.11186 -6.10462
thorax -6.80483 1.04698 -5.74141
lowerneck -10.8463 1.34952 -0.923605
upperneck 0.864665 1.79384 2.83961
head 2.11041 0.977243 1.1606
rclavicle 5.06901e-015 2.46493e-014
rhumerus 60.0971 -3.20003 -27.3196
rradius 28.8644
rwrist 16.7313
rhand -21.2537 -34.7976
rfingers 7.12502
rthumb 5.12938 -64.7155
lclavicle 5.06901e-015 2.46493e-014
lhumerus 77.3189 18.9962 8.89535
lradius 58.3156
lwrist -5.51597
lhand -33.4516 -397.689
lfingers 7.12502
lthumb -6.65015 -367.814
rfemur -64.8143 5.59573 23.2382
rtibia 33.3514
rfoot -200.445 7.4759
rtoes 1.85067
lfemur -87.8877 18.9463 -21.9057
ltibia 70.3208
lfoot -185.77 9.79173
ltoes 32.5049
836
root 10.0325 8.28359 -4.13443 -30.8717 -13.5582 9.98614
lowerback 32.4727 3.02184 -3.28196
upperback 8.68091 2.0475 -6.20518
thorax -7.05587 1.01325 -5.49831
lowerneck -10.543 1.39157 -1.25612
upperneck 1.55821 1.84291 3.6247
head 2.28115 1.02705 1.48196
rclavicle -2.48481e-014 1.82882e-014
rhumerus 59.0468 -6.67605 -31.0933
rradius 25.8744
rwrist 16.887
rhand -18.8997 -36.2245
rfingers 7.12502
rthumb 7.40196 -66.075
lclavicle -2.48481e-014 1.82882e-014
lhumerus 77.0534 19.6245 9.48847
lradius 55.7254
lwrist -3.94249
lhand -33.0743 -395.134
lfingers 7.12502
lthumb -6.28597 -365.247
rfemur -64.9925 5.36962 22.7895
rtibia 34.6095
rfoot -199.558 7.83246
rtoes 2.89755
lfemur -86.2487 18.0407 -21.9193
ltibia 66.1722
lfoot -186.392 9.41226
ltoes 33.1913
